<svg width="48" height="48" viewBox="0 0 48 48" fill="none" xmlns="http://www.w3.org/2000/svg">
<path d="M14.3998 12.24V14.24C15.1111 14.24 15.7689 13.8622 16.1274 13.2477L14.3998 12.24ZM17.7598 6.48V4.48C17.0485 4.48 16.3907 4.85782 16.0322 5.47225L17.7598 6.48ZM30.2398 6.48L31.9674 5.47225C31.6089 4.85782 30.9511 4.48 30.2398 4.48V6.48ZM33.5998 12.24L31.8722 13.2477C32.2307 13.8622 32.8885 14.24 33.5998 14.24V12.24ZM6.7998 36.72V17.04H2.7998V36.72H6.7998ZM9.5998 14.24H14.3998V10.24H9.5998V14.24ZM16.1274 13.2477L19.4874 7.48774L16.0322 5.47225L12.6722 11.2323L16.1274 13.2477ZM17.7598 8.48H30.2398V4.48H17.7598V8.48ZM28.5122 7.48774L31.8722 13.2477L35.3274 11.2323L31.9674 5.47225L28.5122 7.48774ZM33.5998 14.24H38.3998V10.24H33.5998V14.24ZM41.1998 17.04V36.72H45.1998V17.04H41.1998ZM41.1998 36.72C41.1998 38.2664 39.9462 39.52 38.3998 39.52V43.52C42.1553 43.52 45.1998 40.4755 45.1998 36.72H41.1998ZM38.3998 14.24C39.9462 14.24 41.1998 15.4936 41.1998 17.04H45.1998C45.1998 13.2845 42.1553 10.24 38.3998 10.24V14.24ZM6.7998 17.04C6.7998 15.4936 8.05341 14.24 9.5998 14.24V10.24C5.84427 10.24 2.7998 13.2845 2.7998 17.04H6.7998ZM9.5998 39.52C8.05341 39.52 6.7998 38.2664 6.7998 36.72H2.7998C2.7998 40.4755 5.84427 43.52 9.5998 43.52V39.52ZM29.1998 25.68C29.1998 28.5519 26.8717 30.88 23.9998 30.88V34.88C29.0808 34.88 33.1998 30.761 33.1998 25.68H29.1998ZM23.9998 30.88C21.1279 30.88 18.7998 28.5519 18.7998 25.68H14.7998C14.7998 30.761 18.9188 34.88 23.9998 34.88V30.88ZM18.7998 25.68C18.7998 22.8081 21.1279 20.48 23.9998 20.48V16.48C18.9188 16.48 14.7998 20.599 14.7998 25.68H18.7998ZM23.9998 20.48C26.8717 20.48 29.1998 22.8081 29.1998 25.68H33.1998C33.1998 20.599 29.0808 16.48 23.9998 16.48V20.48ZM38.3998 39.52H9.5998V43.52H38.3998V39.52Z" fill="white"/>
</svg>
